https://plantuml-editor.kkeisuke.com/
!!!   https://plantuml.com/ru/sequence-diagram
https://habr.com/ru/companies/alfa/articles/740518/
!!!   https://www.planttext.com/

@startuml qwe
class "Order" as order {
  +String placeOrder()
}
class "Customer" as customer {
  +String giveOrder()
  +Order receiveOrder()
}
customer --> order : places
order --> customer : gives
@enduml


@startuml 111
actor "Customer" as customer
actor "Clerk" as clerk
usecase "Perform checkout" as checkout
usecase "Payment" as payment
usecase "Get help" as help

customer - checkout
checkout -[dashed]-> payment : include
checkout -[dashed]-> help : extends
checkout - clerk
@enduml


@startuml 222
skinparam Shadowing true

participant Alice #lightGreen
participant Bob #pink

Alice -> Bob: Authentication Request
Bob -> RequestHandler: validated Authenticated Request
RequestHandler --> Bob: Authenticated Response (OK)
Bob --> Alice: Authentication Response (OK)

'!include ../../plantuml-styles/ae-copyright-footer.txt
@enduml


@startuml 333

'!include plantuml-ae.iuml

participant "Request Handler" as RH  << (S,#ADD1B2) Server >> order 3
participant Alice #lightGreen
participant Bob #white


Alice -> Bob: Valid Authentication Request
Bob -> RH: formatted Authenticated Request (VALID)
RH --> Bob: Request Authenticated Response (OK)
Bob --> Alice: Authentication Response (OK)

Alice -> Bob: Invalid Authentication Request
Bob --> RH: formatted Authenticated Request (INVALID)
RH --> Bob: Request Authenticated Response (DENIED)
Alice <-- Bob: Authentication Response (DENIED)

'!include ../../plantuml-styles/ae-copyright-footer.txt
@enduml


@startuml 444
actor Alice #pink
entity "Auth System" as authSys #lightGreen

Alice -> authSys: Authentication Request

create wrappedRequest
authSys -> wrappedRequest: new request()
Alice <-- authSys: response
'!include ../../plantuml-styles/ae-copyright-footer.txt
@enduml


@startuml 555

title

 The length you make arrow lines is
 ignored in Sequence Diagrams.

end title


A ----------------------------------->> B
A <<----------> C
A <- D


caption: \nEven though you made the arrow line\n from A to B the longest,\n their lengths are calculated and this\n calculated length is what's drawn.

'!include ../../plantuml-styles/ae-copyright-footer.txt
@enduml



@startuml 666
'!include ../../plantuml-styles/plantuml-ae.iuml

skinparam Shadowing false

skinparam ArrowFontStyle normal
skinparam ArrowFontName Courier
skinparam ArrowFontSize 10

title Arrows in Use Case diagrams\n


(Manage Users) -up-|> (Management): This arrow is -up-|>

:All Users:      as allUsers #violet
:Main Admin:     as Admin    #saddleBrown
:User:           as U        #tan
:System Manager: as manager

Admin   -up-|>    allUsers: This arrow is -up->
manager -right-|> allUsers: This arrow is -right-|>
U       -|>       allUsers: This arrow is -|>

Admin --> U:    This arrow is -->
Admin <.....> U: This arrow is <.....>

Admin   -[#blue]->    (Manage Users): This arrow is -[#blue]->
manager -[#blue]->> (Manage Users): This arrow is -[#blue]->>


'!include ../../plantuml-styles/ae-copyright-footer.txt
@enduml


@startuml 777
'!include ../../plantuml-styles/plantuml-ae.iuml

skinparam ActorBorderColor   SaddleBrown
skinparam NoteFontStyle normal
skinparam Shadowing false


title Usecase Diagrams: Connecting Notes to Objects

(Use the application) as (Use)

User -[#LightSlateGray]-> (Start)
User -[#LightSlateGray]-> (Use)

note "This note is connected to \n two use cases \n and the User actor."  as N2  #white

(Start) <<-[#orange]- N2
N2 .[#magenta].|> (Use)
User <==[#DeepSkyBlue]==> N2

'!include ../../plantuml-styles/ae-copyright-footer.txt
@enduml



@startuml aaa

actor A
actor B

A -up-> (up)
A -right-> (center)
A -down-> (down)
A -left-> (left)

B -up-> (up)
B -left-> (center)
B -right-> (right)
B -down-> (down)

@enduml


@startuml bbb

|A Section|
start
:step1;
|#AntiqueWhite|B Section|
:step2;
:step3;
|A Section|
:step4;
|B Section|
:step5;
stop

@enduml




@startuml ccc

start

:step 1;

if (try) then (true)
  :step 2;
  :step 3;
else (false)
  :error;
  end
endif

stop

@enduml




@startuml ddd

actor "Front" as front

participant "Сервис справок" as report
database "База данных" as db

front -> report: Получение список справок
activate report
report -> db:  Получение список справок из бд
activate db
db --> report:  Список справок
deactivate db
report -> front: Список справок
deactivate report

@enduml



@startuml eee
actor "Front" as front
autonumber
box "Back" #LightBlue
participant "Сервис справок" as report
participant "Сервис счетов" as account
participant "Сервис клиентов" as customer
participant "Сервис скоринга клиентов" as check
participant "Сервис формирования pdf" as pdf
database "База данных" as db
end box

front -> report++: Получение выписку по счету
report -> account++: Получение информации по счету
account -> db++:  Получение информации по счету
db -> db:  Получение информации по счету
db --> account--:  Информация по счету
account --> report--:  Информация по счету
report -> customer++: Получение информации по клиенту
customer -> db++:  Получение информации по клиенту
db -> db:  Получение информации по клиенту
db --> customer--:  Информация по клиенту
customer --> report--:  Информация по клиенту
report -> check++: Проверка клиента
alt Клиент не прошел проверку
check--> report--: Клиенту нельзя выдать выписку по счету
report--> front: Отказ в выдачи выписки по счету
else Клиент прошел проверку
report -> pdf++: Отправка данных для \nформирования выписки по счету
pdf -> pdf: Формирование выписки по счету
pdf --> report--:  Выписка по счету
report -> front--: Выписка по счету
end
@enduml



https://habr.com/ru/companies/alfa/articles/740518/
@startuml fff
start
:Клиент заказал "Выписку по счету";
group <b>1. Получение данных по клиенту и счету из БД </b>
:Сервис Справок отправил запрос на \nполучение данных по клиенту;
:Сервис Справок отправил запрос на \nполучение данных по счету;
end group
group <b>2. Проверка клиента </b>
:Сервис справок отправил запрос в систему Скоринга;
end group
if (Клиент проходит проверку?) then (нет)
:Отправляем клиенту ошибку;
else (да)
group <b>3.  Формирование печатной формы </b>
:Сервис справок отправляет данные \nв сервис формирования pdf;
end group
:Сервис справок получил выписку по счету;
:Фронт отобразил выписку по счету;
endif
stop
@endumll



@startuml ggg

autonumber

A -> B: step

activate B
B -> C: step

activate C
C --> C: action
C -> B: step
deactivate C

B -> A: step
deactivate B

@enduml



@startuml hhh

object Car
object Bus
object Tire
object Engine
object Driver

Car <|- Bus
Car *-down- Tire
Car *-down- Engine
Bus o-down- Driver

@enduml



@startuml iii

class Car {
  color
  model
  +start()
  #run()
  #stop()
}

Car <|- Bus
Car *-down- Tire
Car *-down- Engine
Bus o-down- Driver

@enduml



@startuml jjj

entity Customer  {
  + id (PK)
  --
  name
  mail
}

entity Order  {
  + id (PK)
  --
  # customer id (FK)
  order date
}

entity "Order Detail" as OrderDetail {
  + id (PK)
  --
  # order id  (FK)
  price without tax
}

Customer -right-o{ Order
Order ||-right-|{ OrderDetail

@enduml




https://plantuml.com/ru/sequence-diagram

@startuml 1
participant Participant as Foo
actor       Actor       as Foo1
boundary    Boundary    as Foo2
control     Control     as Foo3
entity      Entity      as Foo4
database    Database    as Foo5
collections Collections as Foo6
queue       Queue       as Foo7
Foo -> Foo1 : To actor 
Foo -> Foo2 : To boundary
Foo -> Foo3 : To control
Foo -> Foo4 : To entity
Foo -> Foo5 : To database
Foo -> Foo6 : To collections
Foo -> Foo7 : To queue
@enduml



@startuml 2
Alice -> Alice: Это сигнал к самому себе.\nТакже это является демонстрацией\nмногострочного \nтекста.
@enduml


@startuml 3
Bob ->x Alice
Bob -> Alice
Bob ->> Alice
Bob -\ Alice
Bob \\- Alice
Bob //-- Alice

Bob ->o Alice
Bob o\\-- Alice

Bob <-> Alice
Bob <->o Alice
@enduml



@startuml 4
Bob -[#red]> Alice : hello
Alice -[#0000FF]->Bob : ok
@enduml


@startuml 5
autonumber 10 10 "<b>[000]"
Bob -> Alice : Authentication Request
Bob <- Alice : Authentication Response

autonumber stop
Bob -> Alice : dummy

autonumber resume "<font color=red><b>Message 0  "
Bob -> Alice : Yet another authentication Request
Bob <- Alice : Yet another authentication Response

autonumber stop
Bob -> Alice : dummy

autonumber resume 1 "<font color=blue><b>Message 0  "
Bob -> Alice : Yet another authentication Request
Bob <- Alice : Yet another authentication Response
@enduml



@startuml 6
Alice -> Bob: Authentication Request
Bob -> Alice: Authentication Failure
group Моя основная метка [Моя дополнительна метка]
    Alice -> Log : Log attack start
    loop 1000 times
        Alice -> Bob: DNS Attack
    end
    Alice -> Log : Log attack end
end
@enduml




@startuml 7
Alice->Bob : привет
note left: это первая заметка

Bob->Alice : ага
note right: это другая заметка

Bob->Bob : я размышляю над этим
note left
заметки
могут занимать
несколько строчек
end note
@enduml



@startuml 8
participant Alice
participant Bob
note left of Alice #aqua
Будет отображено
слева от Алисы
end note

note right of Alice: Будет отображено справа от Алисы

note over Alice: Будет отображено над Алисой.

note over Alice, Bob #FFAAAA: Будет отображено\n над Алисой и Бобом.

note over Bob, Alice
А это еще
один пример
длинной заметки.
end note
@enduml


ннн    судоку
@startuml 9
sudoku
@enduml





# именовать не получается.  ошибка в языке?
@startjcckit(600,300)
data/curves = n125 n250 n500
data/common/y = 1 0.998 0.996 0.994 0.992 0.99 0.988 0.986 0.984 0.982 0.98 0.978 0.976 0.974 0.972 0.97 0.968 0.966 0.964 0.962 0.96 0.958 0.956 0.954 0.952 0.95 0.948 0.946 0.944 0.942 0.94 0.938 0.936 0.934 0.932 0.93 0.928 0.926 0.924 0.922 0.92 0.918 0.916 0.914 0.912 0.91 0.908 0.906 0.904 0.902 0.9 0.898 0.896 0.894 0.892 0.89 0.888 0.886 0.884 0.882 0.88 0.878 0.876 0.874 0.872 0.87 0.868 0.866 0.864 0.862 0.86 0.858 0.856 0.854 0.852 0.85 0.848 0.846 0.844 0.842 0.84 0.838 0.836 0.834 0.832 0.83 0.828 0.826 0.824 0.822 0.82 0.818 0.816 0.814 0.812 0.81 0.808 0.806 0.804 0.802 0.8 0.798 0.796 0.794 0.792 0.79 0.788 0.786 0.784 0.782 0.78 0.778 0.776 0.774 0.772 0.77 0.768 0.766 0.764 0.762 0.76 0.758 0.756 0.754 0.752 0.75 0.748 0.746 0.744 0.742 0.74 0.738 0.736 0.734 0.732 0.73 0.728 0.726 0.724 0.722 0.72 0.718 0.716 0.714 0.712 0.71 0.708 0.706 0.704 0.702 0.7 0.698 0.696 0.694 0.692 0.69 0.688 0.686 0.684 0.682 0.68 0.678 0.676 0.674 0.672 0.67 0.668 0.666 0.664 0.662 0.66 0.658 0.656 0.654 0.652 0.65 0.648 0.646 0.644 0.642 0.64 0.638 0.636 0.634 0.632 0.63 0.628 0.626 0.624 0.622 0.62 0.618 0.616 0.614 0.612 0.61 0.608 0.606 0.604 0.602 0.6 0.598 0.596 0.594 0.592 0.59 0.588 0.586 0.584 0.582 0.58 0.578 0.576 0.574 0.572 0.57 0.568 0.566 0.564 0.562 0.56 0.558 0.556 0.554 0.552 0.55 0.548 0.546 0.544 0.542 0.54 0.538 0.536 0.534 0.532 0.53 0.528 0.526 0.524 0.522 0.52 0.518 0.516 0.514 0.512 0.51 0.508 0.506 0.504 0.502 0.5 0.498 0.496 0.494 0.492 0.49 0.488 0.486 0.484 0.482 0.48 0.478 0.476 0.474 0.472 0.47 0.468 0.466 0.464 0.462 0.46 0.458 0.456 0.454 0.452 0.45 0.448 0.446 0.444 0.442 0.44 0.438 0.436 0.434 0.432 0.43 0.428 0.426 0.424 0.422 0.42 0.418 0.416 0.414 0.412 0.41 0.408 0.406 0.404 0.402 0.4 0.398 0.396 0.394 0.392 0.39 0.388 0.386 0.384 0.382 0.38 0.378 0.376 0.374 0.372 0.37 0.368 0.366 0.364 0.362 0.36 0.358 0.356 0.354 0.352 0.35 0.348 0.346 0.344 0.342 0.34 0.338 0.336 0.334 0.332 0.33 0.328 0.326 0.324 0.322 0.32 0.318 0.316 0.314 0.312 0.31 0.308 0.306 0.304 0.302 0.3 0.298 0.296 0.294 0.292 0.29 0.288 0.286 0.284 0.282 0.28 0.278 0.276 0.274 0.272 0.27 0.268 0.266 0.264 0.262 0.26 0.258 0.256 0.254 0.252 0.25 0.248 0.246 0.244 0.242 0.24 0.238 0.236 0.234 0.232 0.23 0.228 0.226 0.224 0.222 0.22 0.218 0.216 0.214 0.212 0.21 0.208 0.206 0.204 0.202 0.2 0.198 0.196 0.194 0.192 0.19 0.188 0.186 0.184 0.182 0.18 0.178 0.176 0.174 0.172 0.17 0.168 0.166 0.164 0.162 0.16 0.158 0.156 0.154 0.152 0.15 0.148 0.146 0.144 0.142 0.14 0.138 0.136 0.134 0.132 0.13 0.128 0.126 0.124 0.122 0.12 0.118 0.116 0.114 0.112 0.11 0.108 0.106 0.104 0.102 0.1 0.098 0.096 0.094 0.092 0.09 0.088 0.086 0.084 0.082 0.08 0.078 0.076 0.074 0.072 0.07 0.068 0.066 0.064 0.062 0.06 0.058 0.056 0.054 0.052 0.05 0.048 0.046 0.044 0.042 0.04 0.038 0.036 0.034 0.032 0.03 0.028 0.026 0.024 0.022 0.02 0.018 0.016 0.014 0.012 0.01 0.008 0.006 0.004 0.002 
data/n125/ = data/common/
data/n125/title = N=125
data/n125/x = 6584.52 6658.72 6820.14 6853.31 6935.06 6942.07 7038.82 7099.1 7251.71 7407.56 7625.55 7951.12 8215.6 8318.76 8373.33 8382.14 8476.49 8531.61 8636.75 8799.81 8864.75 8892.88 9060.05 9119.1 9420.1 9682.76 9896.38 10068.6 10087.4 10139.5 10270.4 10412.2 10554.8 10592.6 10624 10699.8 10742.2 10820.9 11023 11095.8 11272.4 11324.7 11368.6 11450.8 11479.1 11490.4 11963.6 12053.5 12082.2 12384.4 12486.9 12692.5 12711.2 12975.8 13436.9 13444.5 13614.1 13820.9 13826.5 13849.8 14202.2 14481.5 14566.7 14616.9 15204.5 15393.4 15562 15889.4 15952.8 16008.6 16070.9 16115.5 16224.8 16273 16339.3 16369.9 16574.6 16922.1 17039 17077.9 17101.2 17234.5 17357.1 17453.2 17522.2 17526 17691.2 17801.2 17858.5 18171.2 18282 18373.6 18550.1 18686.5 18721.9 19128.1 19264 19668.6 19777.5 19878 20259.4 20410.1 20680.2 21083 21139 21227.4 21350 21513.9 21561.8 21804.4 21936 21998.9 22036.2 22152.5 22479.6 22725.4 22789.4 22920.1 22935.2 23088.8 23300.4 23497.6 23522.8 23562.9 24151 24707 24719.6 24937.1 24973.4 25607.6 25640.1 25860.1 25906 26118.9 26168.1 26566.4 26607.8 26801.5 26827.1 27079.4 27165.1 27278.3 27597.9 27658.4 27874.4 28044.1 28238.9 28390.4 28540.5 28784.9 29264.4 29442.2 29444 29599.1 29603.8 29846 29968 29983.7 30182.2 30221.2 30224.9 30472.6 30567.9 30819.4 30884.5 30904 31040.4 31050.6 31239.2 31380 31386.9 31798.2 31823.5 32591.1 32716.3 32779.1 32790.5 32910.4 33036.1 33166.2 33341.4 33618 33732.9 33908.9 34002.5 34183.4 34275.8 35255.5 35726 35743.4 35881.8 36526.4 36694.4 36985.1 37089.2 37162.9 37176 37341.5 37390.9 38394.4 38431.5 38733.8 38984.4 39125.9 39539.1 39670 39725.6 39861.5 40219.6 40503.6 40511.2 40585.4 40625.5 40743.8 41267 41481.4 42286 42435.6 42480.9 42555.1 42850 43052.1 43402.9 43588.1 43845.1 43946.9 44161.6 44876.8 45659 45932.4 46131.6 46159.8 46558.8 46634.4 47650.1 48010.1 48540.5 48736 48794.4 48827 49768.1 49839.2 49958.1 50071.6 50126.4 50378.2 50402.4 50670.4 50935 51276.8 51595.4 51658.1 51896.9 53055.6 54138.8 54831.8 54843.2 56788 56834.9 56968 57171.6 57361.5 57374.5 57406.2 57772.4 58007.4 58500 58888.1 58904.6 58963.6 59087.5 59579.5 59823.7 59839.6 60119.6 60184.4 60195.8 60768.1 60822.4 60865.6 61057.9 62001.8 62071.2 62122.4 62733 62842.2 62999.2 63046 63670.2 63881.6 64173.6 64206.9 64406.4 65050.8 65503.2 65636.5 67458.8 67925.4 67934.1 68057.4 68334.4 68497.1 68542.4 68734 69278.2 69865 70188 70372.6 70981.4 71136 71500.4 71703.5 72679.2 73316.2 73475.2 74027 74268.9 74561.5 74563 74738.8 74832.5 75225.9 75488 75629.6 75714.4 75874.1 77396.1 77500.9 77682 78131.8 78184.6 78580.5 79175.5 79439.4 79647.9 80677.1 80751.8 81029.5 81678.1 81774.1 81964.6 81996 82640.6 82953.5 83390.9 83625.2 83676.5 84542 85016.2 86972.4 86984.1 88140.2 88480.9 88785.1 90434.8 90975.8 91634.9 93035.5 93097.6 93741.9 93761.6 94026.4 94155.2 94250 95028.6 95406.8 95695.9 98941.6 99023.4 99527.4 99710.2 100128 100289 100341 100351 100730 101026 102862 102947 103163 104223 104363 105054 105192 106132 106450 106526 108581 109347 109355 110438 112146 113344 113532 115288 116338 116460 116544 119441 120480 120484 122074 122166 123384 123670 123729 124027 124046 125254 125459 127555 129195 129556 132119 133152 133701 135440 135942 136406 136951 139060 139891 140714 142648 142871 144111 144184 144730 145202 146992 147204 147814 148468 149210 149358 149472 149531 151042 153264 154594 155161 155341 157618 160645 162851 164122 166380 166638 167339 168532 172935 173858 174115 175391 176188 176202 177530 177796 177814 179395 180070 180111 181338 182372 183509 184269 186514 187408 197445 200350 204020 206594 208107 211459 211890 212322 220300 220409 221034 231302 232664 234868 241549 251059 260118 262389 263845 263878 274204 275964 278898 282536 282860 292451 294808 307599 316119 328524 339418 388162
data/n250/ = data/common/
data/n250/title = N=250
data/n250/x = 25052.2 25638.8 25638.8 25825 25908 25946.5 25995.8 26043.5 26543.2 26635 26635 26970.5 27097.3 27222.3 27269.8 27402.2 27567.2 27657.8 27701.2 27910.5 27936 28356 28845.2 28847 28875.5 29633.7 29646.5 29817.2 30046.7 30109.8 30327.5 30692 30778.3 31120 31157.5 31173.5 31173.5 31193.2 31496.2 31497.5 31594.8 31716.3 31724.5 31821.7 31821.7 32166.3 32252.7 32296.5 32437.8 32539.2 32551.8 32551.8 32582.5 32698.2 32713.2 32885 32945.8 33165 33459.8 33762.5 34631.8 35017.8 35161 35403.5 35697 35795.8 35835.2 35835.2 35883.2 36091.8 36127.5 36450.5 36450.5 36612.8 37046.8 37094 37298.5 37306.8 37327.8 37460.8 37559.8 37628 37679 37707 37834.2 38792.2 39170.8 39201.5 39461 39652.5 39747.2 40086.2 40218.5 40448.5 40549.8 40758.8 40758.8 40824 41041.2 41130.8 41212.8 41798.8 41851.8 41968.2 41968.2 42371.8 42410.8 43061 43341.2 43341.2 43537.2 43639 44051.2 44084.5 44351.8 44356.2 44356.2 44451.5 44664.8 44702 44760.8 44760.8 45075.5 45277 45277 45661.2 45908.5 45967 45967 46021 46345.8 46427.8 46550.2 46633.2 46832.2 46922 46948.8 47070 47113.8 47124 47153.2 47186 47987 48121.2 48143.5 48143.5 48643.2 48692.8 48748 48870.5 49153.8 49393.8 49720.5 50056 50317 50335 50525.5 50740.5 51830.2 51830.2 51957.2 52037.5 52050.5 52811.5 53150 53162 53254 54169 54200.5 54236.5 54286.5 56452.5 56973 57596 57691 57897 58056.5 58056.5 58108.8 58248.2 58252 58568 58612 58651.5 58651.5 59021 59221.5 59335.2 59341.5 59550.3 59644.2 59648.7 59663 60081 60225 60225 60225.8 60378.2 60424.5 60760.5 61077.5 61151 61331.2 61834.2 61941.8 61941.8 62065.5 62182.5 62861.5 63185 63691.5 64130 64421 64776.8 65450.5 65461.2 65635.2 66175 66494 66836.5 66868 66937.2 66937.2 67735.2 68008.2 68162.5 68532.5 68752.5 68978.8 69343.5 69700 70064 70083.2 70311.2 70311.2 70746 70893 71088.8 71738.2 72107.5 72163.5 72828 73894.5 73966.5 74595.8 74877.8 75251.8 75507.5 75681.2 75756.2 76808.8 76925.8 77261 77390 77390 77413.8 78120 78120 78334.2 78497 78875.8 79489.2 79979.8 82448.8 82502.5 82997.8 83109 83127.8 83709 83795.8 83804 85237.8 85851.5 85851.5 86295 86329 87062 87317.2 88189.5 88292.5 88340.8 88738.8 89554.2 89620.5 89870 90058 91497 91516.2 91650.8 91701.8 91729.2 92481.2 92500.5 92500.5 92685.5 93415 94102 94184.2 94322.5 94322.5 94338 94905 95149.2 96240.8 96577 97082 97315 97429.5 97479.5 97858.5 97895.8 98029.5 98421.5 98571.2 98683.8 98726.2 98959 99275 99713.2 99954 100318 100318 100364 100605 100621 100790 101192 101487 101641 101965 102144 102144 102676 102861 103764 104132 104176 104223 104470 104622 104635 105018 105018 105653 106433 106717 107073 107092 108392 109042 109456 110101 112154 112334 112745 113852 114175 114951 116569 117390 117736 118561 118564 119572 120399 120736 120767 121349 121843 122798 124216 124216 125102 125339 125668 125853 125985 126747 127548 127900 128823 129360 129499 129646 130097 130435 130594 130866 131167 131288 132282 133090 133361 133480 134607 134862 135476 135606 136163 136510 137384 138494 138496 138652 138900 140989 141739 142081 142873 142873 143608 144519 145308 145698 146165 147667 149006 149836 150104 150566 150850 151294 151382 151390 151441 153752 155411 156040 157726 157871 157972 157972 158720 160244 161355 163418 166184 166813 168204 168780 173618 176116 176720 180520 180520 183256 183261 185390 185506 191729 196789 198520 198520 200852 200979 203843 205418 208688 211767 211767 211996 212978 214748 216433 216433 218648 220455 224911 226875 229851 233359 234637 235389 237872 240108 241354 241507 242013 251628 251718 253265 256252 257930 258578 258860 261682 267112 270638 287892 308308 318640 328082 331238 331238 353222 353222 354208 395480 396610 438023 
data/n500/ = data/common/
data/n500/title = N=500
data/n500/x = 49094.1 49391.8 50160 50165 50166 50494 50718.5 50839 50943.5 51286 51432.5 51643.5 51709.5 51933.5 51945 52099.5 52610 52784 53004 53182.5 53509.5 53904.5 54030 54205.5 54770 55134.5 55334 55526 55545 55808 55809 55858 56267.5 56276 56367.5 57282 57379 57621 57931 58015 58089.5 58116 58176.5 58222.5 58808 58921 58941.5 58942 58963 58972.5 59128.5 59723 60013.5 60449 60604 60641 60673 61019 61040 61154.5 61177.5 61393.5 61463 61792.5 61880 62183.5 62738 62908.5 63089 63233.5 63268.5 63347 63420.5 63481.5 63591.5 63775 63893 64037.5 64132.5 64201 64371.5 64437.5 65012.5 65040 65601.5 65606.5 66157 66218.5 66368.5 66533 66544 66630 66767.5 66948.5 67173 67233.5 67400 67456 67523.5 67640.5 67682.5 67706.5 67731 67775.5 67802 67805 67845 67956 68094 68114 68181.5 69002 69069.5 69104 69138 69673 69930.5 70051 70083 70360.5 70454.5 70742 70926 70941 71429.5 71572 71832.5 71914 71941 72340.5 72503 72526 72652 73081 73239 73284.5 73320.5 73340.5 73347 73511.5 74233 74321 74501 74582 74586 74916.5 75170 75215 75718 76124.5 76208.5 76410 76452 76569.5 76664.5 76925.5 77139.5 77141.5 77322 77326 77601 77683.5 77743.5 77830 77842 77980.5 78021.5 78642.5 78882.5 79122.5 79312 79587 79764.5 79959 80180 80197.5 80240.5 80425.5 80598.5 80827 81302 81315 81346.5 81609 81903.5 82190.5 82387.5 82403.5 82414.5 82589.5 82606 82657 83431 83525 83802 83839 83923 84036.5 84498 84895 84997.5 85028.5 85061 85654 85828 86379.5 86573.5 86706 87186 87403.5 87755.5 87923 87961.5 87962 88016 88232.5 88271 88722 88758 89082.5 89207.5 89479 89773.5 90427 90495.5 90711 90724.5 90861 91822 92147 92294.5 92355 92372 92455 92547.5 92681.5 92688.5 92845.5 93225.5 93638 93709.5 93803 94367 94582 94678 95133.5 95464.5 95626 95659 96033 96055 96154.5 96487.5 96578.5 97162.5 97495 97552 97800.5 98543 98671.5 98691 98923 98943 99100.5 99930 100406 100479 101054 101306 101396 101416 101509 102133 102636 102735 102964 103436 103802 104606 104690 105235 105622 106101 106212 106430 107276 107306 107351 107471 109114 109222 109970 110000 110147 110235 110875 111023 111121 111221 111354 111429 111452 111744 111820 111934 111944 112742 114299 114794 115475 115649 116262 116347 116549 116933 117404 117570 117836 118420 118492 119243 119268 120464 120808 120847 121142 121618 121622 121720 121768 121780 122132 122664 123127 123312 123704 124034 124210 125836 126004 126428 127772 128310 128414 128653 128674 128864 131416 131562 131904 132002 132271 132277 132402 132760 133398 134191 135282 135951 136234 136774 136837 137418 137500 139267 139288 139380 140915 141543 141924 142461 143054 143334 144342 145360 145521 145810 146082 147390 147534 147588 148465 150082 150361 151379 151465 151601 152950 153142 154119 154271 154429 154583 154914 154926 156023 156912 157406 157874 158879 159981 160314 160430 161928 162374 162452 162612 164499 164560 164992 165160 165228 165376 165520 165848 165867 166465 166900 166954 168166 169990 170978 170998 171496 171813 172374 173904 176719 176923 177456 179998 180106 181164 181355 183188 183916 184131 184288 186048 186100 186222 186563 187229 187275 188377 188684 191733 191994 191996 192236 192444 193476 193831 195220 195590 196462 197422 197602 199020 199430 200722 204893 206007 206274 207018 207046 207712 207782 208444 211845 217766 221461 229524 230445 236852 236868 237259 241396 246234 246825 247440 249988 258617 262804 266440 268499 271422 272214 274497 280956 282820 287580 289210 290615 298834 317064 327739 338469 403420 404686 
background = 0xffffff
defaultCoordinateSystem/grid = true
defaultCoordinateSystem/ticLength = 0
defaultCoordinateSystem/ticLabelAttributes/fontSize = 0.025
defaultCoordinateSystem/ticLabelAttributes/fontStyle = bold
defaultCoordinateSystem/axisAttributes/lineColor = 255
defaultCoordinateSystem/axisAttributes/lineThickness = 0.002
defaultCoordinateSystem/axisLabelAttributes/fontSize = 0.035
defaultCoordinateSystem/axisLabelAttributes/fontStyle = bold
plot/coordinateSystem/xAxis/ = defaultCoordinateSystem/
plot/coordinateSystem/xAxis/minimum = 0
plot/coordinateSystem/xAxis/maximum = 500000
plot/coordinateSystem/xAxis/axisLabel = t N
plot/coordinateSystem/xAxis/ticLabelFormat = %d
plot/coordinateSystem/yAxis/ = defaultCoordinateSystem/
plot/coordinateSystem/yAxis/minimum = 0.001
plot/coordinateSystem/yAxis/maximum = 1
plot/coordinateSystem/yAxis/logScale = true
plot/coordinateSystem/yAxis/axisLabel = cummulative density
plot/coordinateSystem/yAxis/ticLabelFormat = %0.3f
plot/legend/boxAttributes/fillColor = 0xe0ffff
plot/legend/boxAttributes/lineThickness = 0.0025
plot/legend/titleAttributes/fontName = Serif
plot/legend/titleAttributes/fontStyle = bold
plot/legend/titleAttributes/fontSize = 0.02
plot/legend/curveTitleAttributes/fontStyle = italic
plot/legend/curveTitleAttributes/fontSize = 0.02
@endjcckit






@startuml 11
xearth
 61.17 -150.00 "Anchorage"           # Alaska, USA
 38.00   23.73 "Athens"              # Greece
 33.4    44.4  "Baghdad"             # Iraq
 13.73  100.50 "Bangkok"             # Thailand
 39.92  116.43 "Beijing"             # China
 52.53   13.42 "Berlin"              # Germany
 32.3   -64.7  "Bermuda"             # Bermuda
 42.33  -71.08 "Boston"              # Massachusetts, USA
-15.8   -47.9  "Brasilia"            # Brazil
 -4.2    15.3  "Brazzaville"         # Congo
-34.67  -58.50 "Buenos Aires"        # Argentina
 31.05   31.25 "Cairo"               # Egypt
 22.5    88.3  "Calcutta"            # India
-33.93   18.47 "Cape Town"           # South Africa
 33.6    -7.6  "Casablanca"          # Morocco (Rabat?)
 41.83  -87.75 "Chicago"             # Illinois, USA
 32.78  -96.80 "Dallas"              # Texas, USA
 28.63   77.20 "New Delhi"           # India
 39.75 -105.00 "Denver"              # Colorado, USA
 24.23   55.28 "Dubai"               # UAE (Abu Dhabi?)
-27.1  -109.4  "Easter Island"       # Easter Island
-18.0   178.1  "Fiji"                # Fiji
 13.5   144.8  "Guam"                # Guam
 60.13   25.00 "Helsinki"            # Finland
 22.2   114.1  "Hong Kong"           # Hong Kong
 21.32 -157.83 "Honolulu"            # Hawaii, USA
 52.2   104.3  "Irkutsk"             # Irkutsk, Russia
 41.0    29.0  "Istanbul"            # Turkey (Ankara?)
 -6.13  106.75 "Jakarta"             # Indonesia
 31.8    35.2  "Jerusalem"           # Israel
 34.5    69.2  "Kabul"               # Afghanistan
 27.7    85.3  "Kathmandu"           # Nepal
 50.4    30.5  "Kiev"                # Ukraine
  3.13  101.70 "Kuala Lumpur"        # Malaysia
  6.45    3.47 "Lagos"               # Nigeria
-12.10  -77.05 "Lima"                # Peru
 51.50   -0.17 "London"              # United Kingdom
 40.42   -3.72 "Madrid"              # Spain
 14.6   121.0  "Manila"              # The Phillipines
 21.5    39.8  "Mecca"               # Saudi Arabia
 19.4   -99.1  "Mexico City"         # Mexico
 25.8   -80.2  "Miami"               # Florida, USA
  6.2   -10.8  "Monrovia"            # Liberia
 45.5   -73.5  "Montreal"            # Quebec, Canada
 55.75   37.70 "Moscow"              # Russia
 -1.28   36.83 "Nairobi"             # Kenya
 59.93   10.75 "Oslo"                # Norway
 48.87    2.33 "Paris"               # France
-32.0   115.9  "Perth"               # Australia
 45.5  -122.5  "Portland"            # Oregon, USA
 -0.2   -78.5  "Quito"               # Ecuador
 64.15  -21.97 "Reykjavik"           # Iceland
-22.88  -43.28 "Rio de Janeiro"      # Brazil
 41.88   12.50 "Rome"                # Italy
 11.0   106.7  "Ho Chi Minh City"    # Vietnam (Hanoi?)
 37.75 -122.45 "San Francisco"       # California, USA
  9.98  -84.07 "San Jose"            # Costa Rica
 18.5   -66.1  "San Juan"            # Puerto Rico
-33.5   -70.7  "Santiago"            # Chile
  1.2   103.9  "Singapore"           # Singapore
 42.67   23.30 "Sofia"               # Bulgaria
 59.33   18.08 "Stockholm"           # Sweden
-33.92  151.17 "Sydney"              # Australia
-17.6  -149.5  "Tahiti"              # Tahiti
 16.8    -3.0  "Timbuktu"            # Mali (Bamako?)
 35.67  139.75 "Tokyo"               # Japan
 43.70  -79.42 "Toronto"             # Ontario, Canada
 32.9    13.2  "Tripoli"             # Libya
 47.9   106.9  "Ulan Bator"          # Mongolia
 49.22 -123.10 "Vancouver"           # B.C., Canada
 48.22   16.37 "Vienna"              # Austria
 38.9   -77.0  "Washington"          # United States
-41.28  174.78 "Wellington"          # New Zealand
 62.5  -114.3  "Yellowknife"         # N.T., Canada
 90.00    0.00 "North Pole"          # North Pole
-90.00    0.00 "South Pole"          # South Pole
@enduml



@startuml 12
listsprite
@enduml




@startuml 13

digraph world {
size="7,7";
	{rank=same; S8 S24 S1 S35 S30;}
	{rank=same; T8 T24 T1 T35 T30;}
	{rank=same; 43 37 36 10 2;}
	{rank=same; 25 9 38 40 13 17 12 18;}
	{rank=same; 26 42 11 3 33 19 39 14 16;}
	{rank=same; 4 31 34 21 41 28 20;}
	{rank=same; 27 5 22 32 29 15;}
	{rank=same; 6 23;}
	{rank=same; 7;}

	S8 -> 9;
	S24 -> 25;
	S24 -> 27;
	S1 -> 2;
	S1 -> 10;
	S35 -> 43;
	S35 -> 36;
	S30 -> 31;
	S30 -> 33;
	9 -> 42;
	9 -> T1;
	25 -> T1;
	25 -> 26;
	27 -> T24;
	2 -> {3 ; 16 ; 17 ; T1 ; 18}
	10 -> { 11 ; 14 ; T1 ; 13; 12;}
	31 -> T1;
	31 -> 32;
	33 -> T30;
	33 -> 34;
	42 -> 4;
	26 -> 4;
	3 -> 4;
	16 -> 15;
	17 -> 19;
	18 -> 29;
	11 -> 4;
	14 -> 15;
	37 -> {39 ; 41 ; 38 ; 40;}
	13 -> 19;
	12 -> 29;
	43 -> 38;
	43 -> 40;
	36 -> 19;
	32 -> 23;
	34 -> 29;
	39 -> 15;
	41 -> 29;
	38 -> 4;
	40 -> 19;
	4 -> 5;
	19 -> {21 ; 20 ; 28;}
	5 -> {6 ; T35 ; 23;}
	21 -> 22;
	20 -> 15;
	28 -> 29;
	6 -> 7;
	15 -> T1;
	22 -> T35;
	22 -> 23;
	29 -> T30;
	7 -> T8;
	23 -> T24;
	23 -> T1;
}
@enduml




!!!   json   ннн
@startjson 14

{
  "people" : [
      {
        "name" : "Mark", 
        "age" : 31, 
        "city" : "New York",
        "phone": [
          {
            "type": "home",
            "number": "867-5309"
          },
          {
            "type": "mobile",
            "number": "646 555-4567"
          }
        ]
      },
      {
        "name" : "Amy", 
        "age" : 24, 
        "city" : "Denver",
        "pets" : [ "Spot", "George", "Fred"]
      },
      {
        "name" : "Steve", 
        "age" : 75, 
        "city" : "San Angelo"
      }
    ]
}

@endjson



@startyaml 16

# yaml.org

YAML: YAML Ain't Markup Language™

What It Is:
  YAML is a human-friendly data serialization
  language for all programming languages.

YAML Resources:
  YAML Specifications:
  - YAML 1.2:
    - Revision 1.2.2      # Oct 1, 2021 *New*
    - Revision 1.2.1      # Oct 1, 2009
    - Revision 1.2.0      # Jul 21, 2009
  - YAML 1.1
  - YAML 1.0

  YAML Matrix Chat:  '#chat:yaml.io'     # Our New Group Chat Room!
  YAML IRC Channel:  libera.chat#yaml    # The old chat
  YAML News:         twitter.com/yamlnews
  YAML Mailing List: yaml-core           # Obsolete, but historical

  YAML on GitHub:                        # github.com/yaml/
    YAML Specs:        yaml-spec/
    YAML 1.2 Grammar:  yaml-grammar/
    YAML Test Suite:   yaml-test-suite/
    YAML Issues:       issues/

  YAML Reference Parsers:
  - Generated Reference Parsers
  - YPaste Interactive Parser

  YAML Test Matrix:   matrix.yaml.io

YAML Frameworks and Tools:
  C/C++:
  - libfyaml      # "C" YAML 1.2 processor (YTS)
  - libyaml       # "C" Fast YAML 1.1 (YTS)
  - libcyaml      # YAML de/serialization of C data (using libyaml)
  - yaml-cpp      # C++ YAML 1.2 implementation

  Crystal:
  - YAML          # YAML 1.1 from the standard library

  C#/.NET:
  - YamlDotNet    # YAML 1.1/(1.2) library + serialization (YTS)
  - yaml-net      # YAML 1.1 library

  D:
  - D-YAML        # YAML 1.1 library w/ official community support (YTS)

  Dart:
  - yaml          # YAML package for Dart

  Delphi:
  - Neslib.Yaml   # YAML 1.1 Delphi binding to libyaml (YTS)

  Elixir:
  - yaml-elixir   # YAML support for the Elixir language

  Erlang:
  - yamerl        # YAML support for the Erlang language

  Golang:
  - Go-yaml       # YAML support for the Go language
  - Go-gypsy      # Simplified YAML parser written in Go
  - goccy/go-yaml # YAML 1.2 implementation in pure Go

  Haskell:
  - HsYAML         # YAML 1.2 implementation in pure Haskell (YTS)
  - YamlReference  # Haskell 1.2 reference parser
  - yaml           # YAML 1.1 Haskell framework (based on libyaml)

  Java:
  - SnakeYAML Engine  # Java 8+ / YAML 1.2
  - SnakeYAML         # Java 5 / YAML 1.1
  - YamlBeans         # To/from JavaBeans. YAML 1.0/1.1
  - eo-yaml           # YAML 1.2 for Java 8. Packaged as a Module (Java 9+)
  - Chronicle-Wire    # Java Implementation

  JavaScript:
  - yaml          # JavaScript parser/stringifier (YAML 1.2, 1.1) (YTS)
  - js-yaml       # Native PyYAML port to JavaScript (Demo)

  Nim:
  - NimYAML       # YAML 1.2 implementation in pure Nim (YTS)

  OCaml:
  - ocaml-yaml    # YAML 1.1/1.2 via libyaml bindings
  - ocaml-syck    # YAML 1.0 via syck bindings

  Perl Modules:
  - YAML          # Pure Perl YAML 1.0 Module
  - YAML::XS      # Binding to libyaml
  - YAML::Syck    # Binding to libsyck
  - YAML::Tiny    # A small YAML subset module
  - YAML::PP      # A YAML 1.2/1.1 processor (YTS)

  PHP:
  - The Yaml Component  # Symfony Yaml Component (YAML 1.2)
  - php-yaml      # libyaml bindings (YAML 1.1)
  - syck          # syck bindings (YAML 1.0)
  - spyc          # yaml loader/dumper (YAML 1.?)

  Python:
  - PyYAML        # YAML 1.1, pure python and libyaml binding
  - ruamel.yaml   # YAML 1.2, update of PyYAML; comments round-trip
  - PySyck        # YAML 1.0, syck binding
  - strictyaml    # Restricted YAML subset

  R:
  - R YAML        # libyaml wrapper

  Raku:
  - YAMLish       # Port of YAMLish to Raku
  - YAML::Parser::LibYAML  # LibYAML wrapper

  Ruby:
  - psych         # libyaml wrapper (in Ruby core for 1.9.2)
  - RbYaml        # YAML 1.1 (PyYAML Port)
  - yaml4r        # YAML 1.0, standard library syck binding

  Rust:
  - yaml-rust     # YAML 1.2 implementation in pure Rust
  - serde-yaml    # YAML de/serialization of structs

  Shell:
  - parse_yaml    # Simple YAML parser for Bash using sed and awk
  - shyaml        # Read YAML files - jq style

  Swift:
  - Yams          # libyaml wrapper

  Others:
  - yamlvim       # YAML dumper/emitter in pure vimscript

Related Projects:
  - Rx            # Multi-Language Schemata Tool for JSON/YAML
  - Kwalify       # Ruby Schemata Tool for JSON/YAML 
  - pyKwalify     # Python Schemata Tool for JSON/YAML
  - yatools.net   # Visual Studio editor for YAML
  - JSON          # Official JSON Website
  - Pygments      # Python language Syntax Colorizer /w YAML support
  - yamllint      # YAML Linter based on PyYAML
  - YAML Diff     # Semantically compare two YAML documents
  - JSON Schema   # YAML-compliant JSON standard for data validation
          
@endyaml



@startuml 15

robust "Job Queue" as JQ

@0
JQ is Idle

@50
JQ is Processing

@250
JQ is Logging

@250
JQ is Waiting

@500
JQ is Idle

@enduml





